# xmcd
#
# Track frame offsets: 
#        183
#        14840
#        30820
#        42283
#        56520
#        71045
#        84633
#        94970
#        108745
#        121545
#        136683
#        150733
#        168453
#
# Disc length: 2545 seconds
#
# Revision: 0
# Processed by: cddbd v1.5.1PL2 Copyright (c) Steve Scherf et al.
# Submitted via: ExactAudioCopy v0.95b4
#
DISCID=a509ef0d
DTITLE=TINA and DAKIS - ELA KONTA MOU-PARAKSENI AGAPI
DYEAR=1900
DGENRE=Folklore
TTITLE0=ELA KONTA MOU - DAKIS
TTITLE1=ONEIREUTIKA - DAKIS
TTITLE2=EGO KAI ESI - DAKIS
TTITLE3=PARE ENA KOXILI APO TO AEGEO - DAKIS
TTITLE4=KOKKINO GARIFALO - DAKIS
TTITLE5=EPISIMI AGAPIMENI - DAKIS
TTITLE6=O DROMOS - DAKIS
TTITLE7=PARAKSENI AGAPI - TINA
TTITLE8=OLA SOU TA DOSA - TINA
TTITLE9=SINORA I AGAPI DEN GNORIZEI - TINA
TTITLE10=SIXNOTITA - TINA
TTITLE11=APOKIMITIIKA TINA
TTITLE12=PIA THISIA, AN IMOUN PLOUSIOS  - TINA
EXTD=
EXTT0=
EXTT1=
EXTT2=
EXTT3=
EXTT4=
EXTT5=
EXTT6=
EXTT7=
EXTT8=
EXTT9=
EXTT10=
EXTT11=
EXTT12=
PLAYORDER=
